<svg width="235" height="100" viewBox="0 0 235 100" fill="none" xmlns="http://www.w3.org/2000/svg">
<path d="M235 50C235 77.6205 214.622 100 189.471 100H45.5286C20.3861 100 0 77.6205 0 50C0 22.3881 20.3861 0 45.5286 0H189.471C214.622 0 235 22.3881 235 50Z" fill="#FFE2B0"/>
<path d="M226.462 50C226.462 74.7812 207.565 94.8705 184.244 94.8705H50.7898C27.4352 94.8705 8.55478 74.7812 8.55478 50C8.55478 25.2187 27.4352 5.14667 50.7555 5.14667H184.21C207.531 5.14667 226.428 25.2359 226.428 50.0171L226.462 50Z" fill="#FFE2B0"/>
<path d="M184.244 95.8826H50.7898C26.9561 95.8826 7.56244 75.2959 7.56244 50C7.56244 24.7041 26.9219 4.12592 50.7556 4.12592H184.21C208.044 4.12592 227.438 24.7126 227.438 50C227.438 75.2873 208.078 95.8826 184.244 95.8826ZM50.7556 6.13312C28.0255 6.13312 9.53859 25.8106 9.53859 50C9.53859 74.1894 28.0255 93.8669 50.7556 93.8669H184.21C206.94 93.8669 225.427 74.1894 225.427 50C225.427 25.8106 206.975 6.13312 184.244 6.13312H50.7556Z" fill="black"/>
<path d="M60.5936 63.9132C59.6133 64.4082 58.5531 64.7247 57.4625 64.8481C49.0275 65.9633 43.6294 59.7444 42.6028 52.153C41.3538 42.5544 47.1283 30.7085 62.7836 28.6498C72.459 27.3803 81.7239 30.9401 82.9814 40.3843C83.3465 42.8278 83.027 45.325 82.0587 47.5971C81.0904 49.8691 79.5113 51.8266 77.4978 53.251C80.5603 54.0521 83.3085 55.7657 85.3796 58.1655C87.4507 60.5653 88.7472 63.5384 89.0981 66.6924C90.2188 75.2702 85.0346 84.8173 73.1434 86.4213C69.0584 87.0915 64.8795 86.9104 60.8673 85.8895C58.7269 87.7681 56.0757 88.9629 53.2535 89.3206V82.4755C53.8927 82.2353 54.5596 82.0768 55.2383 82.0037C56.993 81.7817 58.7752 81.9787 60.4396 82.5785C63.622 78.4783 64.5801 69.3772 64.717 56.6049C64.7341 46.7747 65.0164 40.1184 65.8719 35.8123L70.8165 36.3613C69.761 41.7502 69.2849 47.237 69.3964 52.7277C70.8878 52.5663 72.3898 52.5261 73.8877 52.6076C77.5919 50.1286 78.9008 45.6939 78.3533 41.5165C77.2925 33.462 69.8669 30.3654 62.8178 31.2746C50.3021 32.9216 45.6826 42.889 46.7091 50.669C47.4534 56.3475 51.2432 60.8938 57.0519 60.1046C57.78 60.006 58.4947 59.8247 59.182 59.5642L60.5936 63.9132ZM84.0422 67.0698C83.3322 61.5972 80.0899 56.4591 74.5464 54.8807C72.9071 55.5917 71.1811 56.082 69.4135 56.339C69.4135 70.2522 66.8471 78.6413 63.1087 83.4277C66.2703 84.141 69.5364 84.2602 72.7414 83.7794C81.4245 82.6471 85.0175 74.5068 84.0422 67.0698V67.0698Z" fill="#7A4225"/>
<path d="M103.513 46.3201L107.174 45.8398C106.524 52.9079 106.276 58.6121 106.225 63.8531C106.205 64.3063 106.231 64.7604 106.302 65.2084C106.404 65.9804 106.601 66.3235 106.858 66.2892C107.431 66.212 109.262 63.45 110.896 56.725C111.204 56.725 112.393 56.948 112.436 57.2568C110.374 65.929 108.329 69.8747 105.96 70.1836C104.309 70.4066 103.188 69.0341 102.717 65.4658C102.717 65.3114 102.717 65.1055 102.649 64.8996C101.879 68.2021 100.433 71.1786 97.4476 71.5732C94.8811 71.8991 93.5295 69.2486 93.0333 65.4829C92.0752 58.2089 94.6416 46.9463 99.5264 46.303C101.434 46.0542 102.666 47.0406 103.325 49.3138L103.513 46.3201ZM97.2936 64.3335C97.4989 65.929 97.9523 66.9755 98.7222 66.9068C101.092 66.5895 102.923 57.7972 102.298 52.9936C102.042 51.0808 101.443 49.8027 100.271 49.9485C98.1234 50.2059 96.6691 59.6329 97.3021 64.3335H97.2936Z" fill="#7A4225"/>
<path d="M113.086 68.9226C112.984 68.4639 112.907 68.0001 112.855 67.533C112.577 64.6848 112.747 61.8105 113.359 59.0153C113.727 47.8641 114.352 34.9974 115.832 29.9108C116.045 28.9641 116.532 28.1016 117.232 27.4317C117.932 26.7617 118.814 26.3141 119.767 26.1451C122.333 25.802 123.488 26.96 123.754 28.9243C124.292 33.1103 120.794 40.7617 118.116 45.1021L117.859 49.4939C119.048 45.8226 120.828 43.4294 123.095 43.1378C125.208 42.8547 126.32 44.1842 126.594 46.2429C127.039 49.674 125.071 55.0094 121.392 57.7458C123.3 59.9074 123.471 63.613 124.917 63.4243C126.149 63.2613 128.031 60.4392 129.519 54.2117C129.827 54.1688 131.017 54.4347 131.059 54.7435C129.562 60.9281 127.928 67.2328 124.327 67.7046C120.152 68.2536 119.433 62.3091 118.193 59.2726L117.423 59.3755C117.337 62.3778 117.269 65.4315 117.295 68.3651L113.086 68.9226ZM121.794 47.0835C120.563 47.2465 119.091 49.2194 117.517 54.6749L117.466 56.3133C118.037 56.2432 118.616 56.2751 119.177 56.4076C121.204 54.246 123.052 49.9571 122.795 48.0014C122.727 47.4781 122.513 47.0921 122.043 47.0492L121.794 47.0835ZM120.99 30.1252C120.93 29.662 120.691 29.4304 120.434 29.4562C119.579 29.5677 119.228 31.8236 118.492 40.6073C119.768 37.3645 120.611 33.9669 120.999 30.5027C120.973 30.3911 121.007 30.2282 120.99 30.1252V30.1252Z" fill="#7A4225"/>
<path d="M146.783 51.93C147.091 51.93 148.28 52.153 148.323 52.4618C146.612 59.5642 144.764 65.2685 139.717 65.9375C135.234 66.5208 132.873 62.6437 132.206 57.7886C131.29 50.772 134.028 41.6881 139.794 40.9333C142.36 40.5901 143.9 42.28 144.208 44.656C144.687 48.3187 142.249 53.6799 136.303 55.464L136.406 56.236C136.808 59.3326 138.006 61.7001 140.375 61.3827C143.412 60.9881 145.517 57.4712 146.783 51.93ZM136.201 53.4826C139.811 51.0636 141.043 47.2808 140.795 45.368C140.692 44.596 140.316 44.1156 139.802 44.1842C137.732 44.4673 136.261 49.1165 136.201 53.4826Z" fill="#7A4225"/>
<path d="M157.648 59.3241C158.785 59.1697 160.214 56.2017 161.711 49.9657C161.968 49.9657 163.2 50.1372 163.242 50.446V50.4975C161.754 56.6821 160.736 62.9096 156.553 63.4757C154.132 63.7931 153.002 62.3692 152.694 60.0446C152.258 56.6907 154.149 52.7192 153.798 50.0858C153.607 48.746 153.081 47.4768 152.267 46.3973L150.924 52.1444C150.924 52.1444 149.452 52.0758 149.401 51.6641V51.6126C149.958 49.0218 150.319 46.3923 150.479 43.7468C149.681 42.4653 149.17 41.0254 148.982 39.5265C148.782 37.3365 148.9 35.129 149.332 32.9731L153.345 33.5992C153.604 36.5206 153.495 39.4632 153.019 42.3572C154.953 43.8926 157.434 45.6596 157.819 48.6018C158.255 51.9043 156.45 56.502 156.681 58.3119C156.784 59.1182 157.134 59.3841 157.648 59.3241Z" fill="#7A4225"/>
<path d="M169.564 37.5364C169.564 37.5364 169.094 41.954 168.666 48.7305C168.426 51.2314 168.406 53.7487 168.606 56.2532C168.803 57.7457 169.402 57.9688 169.872 57.8658C172.439 57.5313 172.559 42.0226 172.961 37.0904L177.178 36.5328C176.879 39.0376 176.323 49.7684 175.955 58.3805C181.601 51.9128 187.316 43.9183 185.896 33.076C184.895 25.4846 179.839 22.0621 173.56 22.8856C169.025 23.486 165.116 26.411 163.525 31.8751L159.735 30.8801C161.54 25.5447 166.322 21.2386 173.226 20.3294C180.84 19.3258 188.257 22.8084 189.54 32.5699C191.251 45.5224 182.431 54.6663 175.784 61.8888L175.578 67.4901C175.382 72.8169 173.927 76.9257 170.634 77.3289C168.315 77.6291 166.493 76.4711 166.134 73.7691C165.689 70.338 168.375 66.9068 171.891 62.9353C171.943 61.7173 172.037 60.4478 172.071 59.1268C171.275 60.6536 170.206 61.7001 168.812 61.8631C166.091 62.2234 164.834 59.8645 164.389 56.4162C164.139 54.0282 164.101 51.6226 164.278 49.228C164.688 42.3657 165.184 38.1369 165.184 38.1369L169.564 37.5364ZM170.24 74.5754C171.096 74.4553 171.387 73.3745 171.489 71.7361L171.754 66.5895C169.872 68.9912 168.752 71.2386 169.025 73.3573C169.137 74.2923 169.71 74.6269 170.24 74.5754Z" fill="#7A4225"/>
<path d="M98.4399 19.7289C98.5194 19.7981 98.5911 19.8758 98.6538 19.9605C98.7255 20.0666 98.7614 20.1928 98.7565 20.3208V20.7154H96.575V20.3208C96.57 20.1928 96.606 20.0666 96.6776 19.9605C96.7355 19.8718 96.8078 19.7935 96.8915 19.7289L96.9771 19.6517C96.9928 19.6015 96.9928 19.5476 96.9771 19.4973V13.0983C96.9771 13.0125 96.9257 12.9696 96.8231 12.9696H96.5065H96.344C96.2643 12.9517 96.1906 12.9133 96.1301 12.8581C96.0485 12.8059 95.9832 12.7315 95.9419 12.6437C95.8776 12.5319 95.8479 12.4035 95.8564 12.2748V12.0089C96.1174 11.9972 96.3734 11.933 96.6092 11.8202C96.8383 11.7159 97.0168 11.5246 97.1054 11.2884C97.1341 11.2085 97.1744 11.1333 97.2252 11.0653C97.264 11.0176 97.314 10.9801 97.3707 10.9562C97.4273 10.9323 97.489 10.9226 97.5502 10.9281H98.2603V19.5059C98.247 19.5652 98.247 19.6267 98.2603 19.686L98.4399 19.7289Z" fill="#7A4225"/>
<path d="M101.939 20.784C101.65 20.7819 101.362 20.7415 101.083 20.6639C100.83 20.59 100.594 20.4644 100.39 20.2951C100.192 20.1271 100.034 19.9159 99.9285 19.6775C99.8087 19.4078 99.7502 19.1148 99.7574 18.8197V12.7295C99.75 12.4343 99.8084 12.1413 99.9285 11.8717C100.034 11.6333 100.192 11.4221 100.39 11.2541C100.594 11.0874 100.83 10.9647 101.083 10.8938C101.669 10.7349 102.286 10.7349 102.871 10.8938C103.128 10.9629 103.367 11.0857 103.573 11.2541C103.773 11.4192 103.928 11.6314 104.026 11.8717C104.139 12.1431 104.195 12.4353 104.189 12.7295V18.8025C104.194 19.0967 104.139 19.3887 104.026 19.6603C103.928 19.9006 103.773 20.1128 103.573 20.2779C103.367 20.4489 103.128 20.5746 102.871 20.6468C102.569 20.737 102.255 20.7832 101.939 20.784V20.784ZM102.88 12.7209C102.885 12.5741 102.859 12.4279 102.803 12.292C102.756 12.1862 102.686 12.0924 102.598 12.0175C102.505 11.9517 102.4 11.9051 102.29 11.8803C102.059 11.8232 101.818 11.8232 101.588 11.8803C101.479 11.9027 101.377 11.9497 101.289 12.0175C101.198 12.0919 101.125 12.1857 101.075 12.292C101.019 12.4279 100.993 12.5741 100.998 12.7209V18.8197C100.993 18.9665 101.019 19.1127 101.075 19.2486C101.125 19.3525 101.198 19.4434 101.289 19.5145C101.377 19.5823 101.479 19.6293 101.588 19.6518C101.818 19.7088 102.059 19.7088 102.29 19.6518C102.4 19.6269 102.505 19.5803 102.598 19.5145C102.686 19.4429 102.756 19.3519 102.803 19.2486C102.859 19.1127 102.885 18.9665 102.88 18.8197V12.7209Z" fill="#7A4225"/>
<path d="M107.457 20.784C107.167 20.7831 106.88 20.7427 106.601 20.6639C106.344 20.5918 106.105 20.4661 105.9 20.2951C105.701 20.1271 105.543 19.9159 105.438 19.6775C105.318 19.4078 105.26 19.1148 105.267 18.8197V12.7295C105.259 12.4343 105.318 12.1412 105.438 11.8717C105.543 11.6333 105.701 11.4221 105.9 11.2541C106.106 11.0857 106.345 10.9629 106.601 10.8938C106.88 10.815 107.167 10.7746 107.457 10.7737C107.746 10.776 108.033 10.8164 108.312 10.8938C108.569 10.9629 108.808 11.0857 109.014 11.2541C109.212 11.4221 109.37 11.6333 109.476 11.8717C109.582 12.1449 109.634 12.4362 109.63 12.7295V18.8025C109.634 19.0957 109.581 19.387 109.476 19.6603C109.37 19.8987 109.212 20.1099 109.014 20.2779C108.808 20.4489 108.569 20.5746 108.312 20.6468C108.034 20.73 107.747 20.7761 107.457 20.784V20.784ZM108.398 12.7209C108.403 12.5741 108.376 12.4279 108.321 12.292C108.277 12.1845 108.206 12.0901 108.115 12.0175C108.024 11.9495 107.919 11.9026 107.807 11.8802C107.691 11.8666 107.573 11.8666 107.457 11.8802C107.34 11.8671 107.222 11.8671 107.106 11.8802C106.997 11.9027 106.895 11.9497 106.807 12.0175C106.716 12.0901 106.645 12.1845 106.601 12.292C106.546 12.4279 106.519 12.5741 106.524 12.7209V18.8197C106.519 18.9665 106.546 19.1127 106.601 19.2486C106.645 19.3537 106.716 19.4454 106.807 19.5145C106.895 19.5823 106.997 19.6293 107.106 19.6517C107.22 19.6833 107.338 19.6978 107.457 19.6946C107.575 19.6983 107.693 19.6839 107.807 19.6517C107.919 19.6294 108.024 19.5825 108.115 19.5145C108.206 19.4454 108.277 19.3537 108.321 19.2486C108.376 19.1127 108.403 18.9665 108.398 18.8197V12.7209Z" fill="#7A4225"/>
<path d="M112.436 10.7566C112.709 10.7487 112.981 10.8014 113.231 10.911C113.442 11.009 113.629 11.1525 113.779 11.3313C113.917 11.5097 114.019 11.7138 114.078 11.9317C114.147 12.1538 114.182 12.3853 114.181 12.6179V13.3985C114.198 13.8822 114.057 14.3583 113.779 14.7538C113.612 14.9381 113.404 15.0806 113.172 15.1699C112.941 15.2593 112.691 15.293 112.444 15.2685C112.206 15.2932 111.966 15.2627 111.742 15.1794C111.518 15.0961 111.316 14.9622 111.152 14.7881C110.869 14.3797 110.714 13.8958 110.708 13.3985V12.6523C110.696 12.1481 110.843 11.6531 111.127 11.2369C111.295 11.0635 111.5 10.9303 111.727 10.8472C111.953 10.764 112.195 10.7331 112.436 10.7566V10.7566ZM113.069 12.6437C113.093 12.3676 113.046 12.0899 112.932 11.8374C112.874 11.7632 112.797 11.7053 112.711 11.6692C112.624 11.6332 112.529 11.6202 112.436 11.6315C112.341 11.622 112.247 11.6367 112.16 11.6742C112.073 11.7118 111.997 11.7709 111.939 11.8459C111.833 12.0736 111.786 12.3243 111.803 12.5751V13.4328C111.788 13.689 111.835 13.945 111.939 14.1791C111.992 14.2616 112.066 14.3278 112.153 14.3702C112.241 14.4126 112.339 14.4296 112.436 14.4193C112.529 14.4264 112.624 14.4107 112.71 14.3733C112.796 14.336 112.873 14.2782 112.932 14.2048C113.054 13.9367 113.102 13.6401 113.069 13.3471V12.6437ZM116.439 10.7566C116.439 10.7566 116.439 10.7566 116.439 10.7994L113.163 20.8097C113.163 20.8097 113.163 20.8097 113.111 20.8097H112.068L115.361 10.7994C115.361 10.7994 115.361 10.7566 115.413 10.7566H116.439ZM116.123 16.3579C116.399 16.3501 116.673 16.4028 116.927 16.5123C117.135 16.6111 117.321 16.7512 117.474 16.924C117.613 17.1024 117.714 17.3065 117.774 17.5244C117.832 17.7484 117.861 17.9792 117.859 18.2107V18.9998C117.874 19.4845 117.73 19.9607 117.449 20.3551C117.087 20.6753 116.622 20.8521 116.14 20.8521C115.658 20.8521 115.192 20.6753 114.831 20.3551C114.555 19.9432 114.401 19.4615 114.386 18.9655V18.9655V18.2021C114.387 17.7024 114.539 17.2148 114.822 16.8039C114.992 16.6374 115.197 16.5109 115.422 16.4337C115.647 16.3566 115.887 16.3307 116.123 16.3579V16.3579ZM116.747 18.2278C116.77 17.961 116.726 17.6927 116.619 17.4472C116.562 17.3709 116.487 17.3108 116.4 17.2732C116.312 17.2355 116.217 17.2216 116.123 17.2328C116.028 17.2207 115.933 17.2342 115.845 17.2719C115.758 17.3096 115.682 17.3702 115.627 17.4472C115.515 17.6729 115.467 17.9253 115.49 18.1764V19.0341C115.471 19.2933 115.518 19.553 115.627 19.789C115.678 19.8722 115.752 19.9389 115.84 19.9815C115.928 20.024 116.026 20.0406 116.123 20.0292C116.218 20.0385 116.313 20.0229 116.4 19.9838C116.487 19.9447 116.563 19.8834 116.619 19.8061C116.734 19.536 116.778 19.2406 116.747 18.9484V18.2278Z" fill="#7A4225"/>
<path d="M127.141 21.6589C126.882 21.6631 126.623 21.6342 126.371 21.5732C126.157 21.5333 125.947 21.47 125.747 21.3845C125.586 21.3187 125.431 21.2383 125.285 21.1443C125.189 21.0814 125.098 21.0126 125.011 20.9384L124.917 20.8612C124.852 20.8465 124.785 20.8465 124.72 20.8612C124.431 20.8618 124.144 20.8243 123.865 20.7497C123.603 20.6759 123.359 20.5505 123.146 20.3809C122.944 20.2138 122.783 20.0025 122.676 19.7633C122.556 19.4936 122.497 19.2006 122.505 18.9055V12.7895C122.497 12.4944 122.556 12.2014 122.676 11.9317C122.78 11.6932 122.942 11.4841 123.146 11.3227C123.357 11.1498 123.602 11.024 123.865 10.9539C124.144 10.8792 124.431 10.8417 124.72 10.8423C125.026 10.8387 125.331 10.8762 125.627 10.9539C125.89 11.024 126.135 11.1498 126.346 11.3227C126.55 11.4841 126.711 11.6932 126.816 11.9317C126.939 12.2007 127 12.4937 126.996 12.7895V18.8712C127.007 19.1649 126.954 19.4575 126.842 19.7289C126.756 19.922 126.631 20.0945 126.474 20.235C126.453 20.2597 126.438 20.2891 126.431 20.3208C126.427 20.3304 126.425 20.3406 126.425 20.3511C126.425 20.3615 126.427 20.3718 126.431 20.3814C126.435 20.3911 126.441 20.3998 126.448 20.407C126.455 20.4143 126.464 20.42 126.474 20.4237H126.525L126.654 20.4838L126.782 20.5438C126.841 20.573 126.896 20.6105 126.944 20.6553C126.997 20.71 127.043 20.7704 127.081 20.8355C127.124 20.9111 127.145 20.9973 127.141 21.0842V21.6589ZM125.704 12.8667C125.719 12.7251 125.699 12.582 125.645 12.4502C125.591 12.3185 125.506 12.2022 125.396 12.1119C125.2 11.9675 124.963 11.8894 124.72 11.8888C124.483 11.8919 124.252 11.9699 124.062 12.1119C123.95 12.2012 123.863 12.3171 123.808 12.449C123.752 12.5808 123.731 12.7244 123.745 12.8667V18.7682C123.739 18.9215 123.769 19.074 123.831 19.2143C123.886 19.3295 123.964 19.4318 124.062 19.5145C124.154 19.5935 124.262 19.652 124.378 19.6861C124.489 19.7198 124.604 19.7372 124.72 19.7375C124.963 19.7369 125.2 19.6588 125.396 19.5145C125.505 19.425 125.589 19.3101 125.643 19.18C125.697 19.0498 125.718 18.9084 125.704 18.7682V12.8667Z" fill="#7A4225"/>
<path d="M133.506 10.9281V11.3227C133.512 11.4485 133.483 11.5735 133.42 11.6829C133.376 11.7713 133.312 11.8478 133.232 11.906C133.202 11.9324 133.173 11.961 133.147 11.9917C133.138 12.0429 133.138 12.095 133.147 12.1461V18.8711C133.151 19.1669 133.09 19.4599 132.967 19.7289C132.862 19.9697 132.697 20.1794 132.488 20.3379C132.273 20.5043 132.03 20.6294 131.769 20.7068C131.49 20.7812 131.203 20.8187 130.914 20.8183C130.611 20.8212 130.309 20.7837 130.016 20.7068C129.753 20.6294 129.506 20.5044 129.288 20.3379C129.075 20.1822 128.906 19.9719 128.801 19.7289C128.678 19.4599 128.617 19.1669 128.621 18.8711V12.1805C128.639 12.1217 128.639 12.0591 128.621 12.0003C128.599 11.9609 128.566 11.9282 128.527 11.906C128.445 11.8424 128.373 11.7673 128.313 11.6829C128.242 11.5769 128.206 11.4507 128.211 11.3227V10.9281H130.435V11.3227C130.44 11.4548 130.394 11.5839 130.307 11.6829C130.241 11.7657 130.167 11.8406 130.084 11.906C130.042 11.928 130.007 11.9605 129.981 12.0003C129.964 12.0591 129.964 12.1217 129.981 12.1805V18.7253C129.971 18.8673 129.994 19.0097 130.049 19.1409C130.104 19.2721 130.189 19.3884 130.298 19.4802C130.493 19.6346 130.734 19.7192 130.982 19.7203C131.226 19.7201 131.462 19.6352 131.65 19.4802C131.761 19.3908 131.848 19.2749 131.903 19.1431C131.959 19.0112 131.98 18.8676 131.966 18.7253V12.1461C131.951 12.1009 131.92 12.0625 131.879 12.0375C131.839 12.0125 131.791 12.0023 131.744 12.0089L131.658 11.9231C131.576 11.8595 131.504 11.7844 131.444 11.7001C131.373 11.5941 131.337 11.4678 131.342 11.3398V10.9453L133.506 10.9281Z" fill="#7A4225"/>
<path d="M139.443 19.7289C139.524 19.7941 139.593 19.8724 139.648 19.9605C139.711 20.0793 139.744 20.212 139.742 20.3465V20.7154H137.561V20.3637C137.557 20.2288 137.589 20.0953 137.655 19.9777C137.705 19.8954 137.772 19.825 137.852 19.7718L137.963 19.6689C137.999 19.6192 138.014 19.5579 138.006 19.4973C138.006 19.3344 137.963 19.18 137.946 19.0427C137.929 18.9055 137.903 18.8025 137.886 18.691C137.881 18.6168 137.881 18.5422 137.886 18.468C137.881 18.3859 137.844 18.309 137.783 18.2536C137.724 18.2173 137.656 18.1994 137.587 18.2021H136.098C135.961 18.2021 135.884 18.2879 135.867 18.468C135.86 18.5422 135.86 18.6168 135.867 18.691C135.867 18.8025 135.867 18.914 135.867 19.0427C135.867 19.1714 135.867 19.3344 135.816 19.4973C135.804 19.5539 135.804 19.6123 135.816 19.6689C135.836 19.7092 135.865 19.7444 135.901 19.7718C135.983 19.8228 136.051 19.8936 136.098 19.9777C136.164 20.0953 136.197 20.2288 136.192 20.3637V20.7154H134.011V20.3723C134.008 20.2338 134.044 20.0973 134.113 19.9777C134.158 19.8803 134.226 19.7951 134.31 19.7289C134.356 19.6987 134.396 19.661 134.43 19.6174C134.469 19.5738 134.496 19.5205 134.507 19.463L135.174 15.8603C135.26 15.4057 135.345 15.0026 135.422 14.5308C135.499 14.059 135.576 13.673 135.636 13.3728C135.696 13.0726 135.756 12.7552 135.799 12.515C135.841 12.2748 135.85 12.1976 135.85 12.189C135.853 12.1262 135.853 12.0632 135.85 12.0003C135.852 11.9769 135.846 11.9535 135.834 11.9334C135.822 11.9134 135.803 11.8978 135.782 11.8888C135.568 11.803 135.456 11.5714 135.456 11.194V10.8938H137.21C137.386 10.8871 137.558 10.9486 137.689 11.0654C137.804 11.1744 137.876 11.32 137.895 11.4771C137.895 11.52 137.895 11.6572 137.963 11.8974C138.031 12.1376 138.066 12.455 138.126 12.8324C138.185 13.2098 138.262 13.6387 138.348 14.1105C138.434 14.5823 138.519 15.0626 138.605 15.5515C138.801 16.6924 139.024 17.9876 139.28 19.4287C139.292 19.4862 139.318 19.5395 139.357 19.5831C139.38 19.6348 139.409 19.6838 139.443 19.7289V19.7289ZM137.475 17.1556C137.503 17.1573 137.53 17.1528 137.555 17.1424C137.58 17.132 137.603 17.116 137.621 17.0956C137.631 17.0726 137.636 17.0478 137.636 17.0226C137.636 16.9975 137.631 16.9727 137.621 16.9497C137.621 16.9497 137.621 16.864 137.621 16.7267C137.621 16.5895 137.561 16.4093 137.527 16.1949C137.493 15.9804 137.45 15.7231 137.407 15.4486C137.364 15.1741 137.321 14.8996 137.27 14.5908L136.877 12.292L136.457 14.5823C136.406 14.8739 136.355 15.1484 136.312 15.44C136.269 15.7317 136.235 15.9633 136.201 16.1863C136.167 16.4093 136.132 16.5809 136.115 16.7181C136.098 16.8554 136.115 16.9326 136.115 16.9412C136.104 16.9654 136.099 16.9917 136.099 17.0184C136.099 17.045 136.104 17.0713 136.115 17.0956C136.153 17.1283 136.202 17.1465 136.252 17.147L137.475 17.1556Z" fill="#7A4225"/>
<path d="M144.927 18.9483V20.3723C144.929 20.4187 144.921 20.4651 144.903 20.5081C144.885 20.5511 144.858 20.5896 144.824 20.621C144.767 20.678 144.691 20.7116 144.61 20.7154H140.452V20.3208C140.447 20.1719 140.47 20.0234 140.521 19.8833C140.563 19.7908 140.636 19.7153 140.726 19.6689C140.775 19.6461 140.818 19.6141 140.855 19.5745C140.889 19.5306 140.907 19.476 140.906 19.4201V12.1976C140.924 12.1331 140.924 12.0649 140.906 12.0003C140.877 11.9604 140.839 11.9281 140.795 11.906C140.714 11.8445 140.644 11.7689 140.589 11.6829C140.518 11.5769 140.482 11.4507 140.487 11.3227V10.9281H142.668V11.3227C142.675 11.4522 142.635 11.5798 142.557 11.6829C142.502 11.7689 142.433 11.8445 142.352 11.906C142.312 11.9282 142.28 11.9609 142.258 12.0003C142.24 12.0649 142.24 12.1331 142.258 12.1976V19.3944C142.257 19.457 142.272 19.5187 142.3 19.5745C142.312 19.5985 142.33 19.6186 142.353 19.6323C142.376 19.646 142.402 19.6527 142.429 19.6517H143.575C143.602 19.6565 143.63 19.6525 143.655 19.6401C143.679 19.6278 143.699 19.6078 143.712 19.5831C143.743 19.5404 143.76 19.4898 143.763 19.4373C143.763 19.2314 143.823 19.1027 143.96 19.0427C144.111 18.9769 144.274 18.9447 144.439 18.9483H144.927Z" fill="#7A4225"/>
<path d="M147.425 19.4459C147.408 19.5019 147.408 19.5615 147.425 19.6174C147.452 19.6504 147.483 19.6793 147.519 19.7032C147.598 19.7705 147.667 19.8485 147.724 19.9348C147.796 20.0409 147.832 20.1671 147.827 20.2951V20.6897H145.688V20.2951C145.682 20.1693 145.711 20.0443 145.774 19.9348C145.834 19.8455 145.909 19.7672 145.996 19.7032C146.035 19.6817 146.07 19.6525 146.099 19.6174C146.11 19.5609 146.11 19.5025 146.099 19.4459V12.1976C146.11 12.1353 146.11 12.0713 146.099 12.0089C146.067 11.9725 146.032 11.9381 145.996 11.906C145.915 11.8445 145.845 11.769 145.791 11.683C145.719 11.5769 145.683 11.4507 145.688 11.3227V10.9367H147.861V11.3227C147.866 11.4507 147.83 11.5769 147.758 11.683C147.704 11.769 147.634 11.8445 147.553 11.906L147.45 12.0089C147.435 12.0709 147.435 12.1357 147.45 12.1976L147.425 19.4459Z" fill="#7A4225"/>
<path d="M154.166 11.0396C154.261 11.1739 154.304 11.3389 154.286 11.5028V12.6265H153.584C153.53 12.6293 153.476 12.62 153.425 12.5992C153.375 12.5785 153.33 12.5468 153.293 12.5064C153.222 12.41 153.185 12.2919 153.191 12.1719C153.191 12.0518 153.139 12.0003 153.045 12.0003H152.412C152.359 11.9988 152.307 12.0171 152.267 12.0518C152.228 12.1002 152.21 12.1617 152.215 12.2234V19.463C152.198 19.5218 152.198 19.5844 152.215 19.6432C152.245 19.6816 152.28 19.7162 152.318 19.7461C152.397 19.8101 152.466 19.8852 152.523 19.9691C152.588 20.078 152.62 20.2028 152.617 20.3294V20.7154H150.453V20.3294C150.449 20.2015 150.485 20.0756 150.556 19.9691C150.618 19.8868 150.69 19.8119 150.77 19.7461L150.855 19.6432C150.891 19.5905 150.906 19.5263 150.898 19.463V12.1805C150.9 12.1535 150.895 12.1263 150.883 12.1021C150.871 12.0779 150.852 12.0575 150.829 12.0432C150.787 12.0323 150.743 12.0323 150.701 12.0432H150.128C150.086 12.0336 150.042 12.0336 150 12.0432C149.977 12.0601 149.959 12.0822 149.947 12.1076C149.935 12.133 149.93 12.161 149.931 12.189C149.936 12.2501 149.927 12.3114 149.907 12.3691C149.886 12.4267 149.854 12.4793 149.811 12.5236C149.688 12.6133 149.535 12.6531 149.384 12.6351H148.853V11.4514C148.845 11.3721 148.855 11.2919 148.883 11.2174C148.912 11.1429 148.957 11.0761 149.016 11.0225C149.168 10.931 149.344 10.8891 149.521 10.9024H153.798C153.933 10.9001 154.065 10.9491 154.166 11.0396V11.0396Z" fill="#7A4225"/>
<path d="M160.462 10.9367V11.3313C160.466 11.4606 160.433 11.5884 160.368 11.7001C160.318 11.7825 160.251 11.8528 160.171 11.906L160.043 12.0004C159.99 12.0366 159.953 12.0919 159.94 12.1548C159.94 12.1548 159.898 12.2577 159.846 12.4035L159.675 12.9696C159.607 13.1927 159.53 13.45 159.436 13.7416C159.341 14.0333 159.247 14.3249 159.153 14.5994C158.931 15.2942 158.674 16.0834 158.4 16.9583V19.4459C158.388 19.5053 158.388 19.5666 158.4 19.626C158.427 19.6629 158.462 19.6925 158.503 19.7118C158.582 19.7791 158.651 19.8571 158.708 19.9434C158.78 20.0494 158.816 20.1757 158.811 20.3037V20.6982H156.63V20.3037C156.627 20.1747 156.666 20.0484 156.741 19.9434C156.798 19.8571 156.867 19.7791 156.946 19.7118C156.986 19.6902 157.021 19.6611 157.049 19.626C157.061 19.5694 157.061 19.511 157.049 19.4545V16.9755C156.775 16.1177 156.527 15.2599 156.296 14.5823L156.014 13.7245C155.928 13.4328 155.843 13.1755 155.774 12.9525L155.603 12.3949C155.572 12.3167 155.546 12.2365 155.526 12.1548C155.511 12.1018 155.481 12.0542 155.44 12.0175L155.355 11.9403C155.274 11.8852 155.205 11.8154 155.15 11.7344C155.085 11.6227 155.052 11.4949 155.056 11.3656V10.971H157.169V11.4085C157.179 11.5319 157.149 11.6552 157.083 11.7602C157.034 11.8328 156.969 11.8942 156.895 11.9403C156.854 11.9772 156.811 12.0116 156.766 12.0432C156.744 12.0633 156.729 12.0894 156.721 12.1184C156.713 12.1473 156.714 12.1778 156.724 12.2062C156.736 12.2677 156.753 12.3279 156.775 12.3864C156.775 12.4893 156.843 12.618 156.886 12.7809L157.032 13.3042C157.092 13.4929 157.143 13.6902 157.194 13.8789C157.331 14.3421 157.468 14.8568 157.631 15.4315H157.708C157.887 14.8568 158.058 14.3335 158.204 13.8617L158.383 13.2956L158.546 12.7638L158.674 12.3778C158.697 12.3225 158.714 12.265 158.726 12.2062C158.741 12.1818 158.749 12.1535 158.749 12.1247C158.749 12.0959 158.741 12.0677 158.726 12.0432C158.683 12.0432 158.649 11.9746 158.597 11.9403C158.52 11.8899 158.456 11.8224 158.409 11.743C158.339 11.6302 158.306 11.4982 158.315 11.3656V10.971L160.462 10.9367Z" fill="#7A4225"/>
</svg>
